<svg xmlns="http://www.w3.org/2000/svg" width="512" height="512" viewBox="0 0 34.988 34.988"><path d="M8.945 2.921l-.756-.754c2.887-2.888 7.586-2.889 10.473-.001l-.756.757a6.345 6.345 0 0 0-8.961-.002zm8.41.553a5.564 5.564 0 0 0-7.859.001l.757.755a4.494 4.494 0 0 1 6.347-.001l.755-.755zM11.604 5.58a2.58 2.58 0 0 1 3.646 0l.756-.757a3.651 3.651 0 0 0-5.16.001l.758.756zm9.039 9.937l-.24.24a1.368 1.368 0 0 0 .002 1.937l.105.105a1.367 1.367 0 0 0 1.936.001l1.81-1.808.237-.239a1.37 1.37 0 0 0 0-1.938l-.107-.106a1.37 1.37 0 0 0-1.937 0l-1.806 1.808zm3.984.849l-1.809 1.809a1.374 1.374 0 0 0 0 1.936l.104.106a1.371 1.371 0 0 0 1.937 0l.24-.241 1.567-1.565.237-.24a1.37 1.37 0 0 0 .002-1.938l-.105-.105a1.37 1.37 0 0 0-1.937-.001l-.236.239zm5.971 8.792l-8.08 8.081a1.737 1.737 0 0 1-2.449.001l-1.391-1.392-1.472 1.47s-2.191 2.176-5.16 1.561l-.069-.013a5.742 5.742 0 0 1-.72-.215c-.107-.04-.215-.076-.324-.125a6.202 6.202 0 0 1-.661-.333c-.065-.039-.134-.087-.201-.129a6.901 6.901 0 0 1-.564-.39c-.073-.056-.147-.112-.223-.173a9.207 9.207 0 0 1-.76-.678c-2.861-2.861-2.736-5.41-2.201-6.697.002-.004.438-1.61.967-3.524.149-.544.308-1.11.463-1.677L4.39 17.561a1.737 1.737 0 0 1 0-2.45l8.08-8.079a1.736 1.736 0 0 1 2.449 0l4.688 4.686.426-.427a1.372 1.372 0 0 1 1.938 0l.105.107c.535.534.535 1.4 0 1.936l-.239.241-1.565 1.566-.242.24a1.368 1.368 0 0 1-1.935 0l-.104-.104a1.372 1.372 0 0 1 0-1.938l.238-.24v-.001l.528-.528-3.97-3.969-8.828 8.825 2.168 2.166c.369-1.32.699-2.471.873-3.019.549-1.739 1.935-1.675 2.594-.617.513.815.115 2.672-.151 4.774-.053.415-.192 1.097-.354 1.821l8.793 8.792 8.823-8.825-.655-.655-.77.77a1.37 1.37 0 0 1-1.936 0l-.107-.107a1.37 1.37 0 0 1 0-1.936l.24-.24 1.567-1.566.237-.24a1.372 1.372 0 0 1 1.938-.001l.104.105a1.369 1.369 0 0 1 0 1.938l-.237.238.002.002-.188.186 1.697 1.697c.674.673.674 1.774.001 2.449zM8.021 13.544c.08.082.215.08.295-.001l2.586-2.586a.208.208 0 0 0 0-.295.209.209 0 0 0-.295-.001l-2.586 2.586a.21.21 0 0 0 0 .297zm17.924 13.818c-.338-.339-.887-.339-1.225 0s-.336.887 0 1.225a.866.866 0 1 0 1.225-1.225z" fill="#0d4b91"/></svg>