<svg xmlns="http://www.w3.org/2000/svg" width="512" height="512" viewBox="0 0 612.001 612.002"><path d="M599.293 116.954l-66.904-83.936a33.306 33.306 0 0 0-26.047-12.548H160.551a33.31 33.31 0 0 0-26.046 12.547l-66.903 83.937c-6.989 8.769-12.708 25.118-12.708 37.46v61.482c5.314-8.36 13.081-14.635 22.395-17.845.521-7.026 2.651-13.84 6.294-20.045 6.311-10.75 16.435-18.394 28.502-21.533 4.326-1.13 8.287-1.642 12.247-1.642 15.955 0 30.413 8.116 38.879 20.866a44.376 44.376 0 0 1 7.619-.667c7.834 0 15.237 2.154 21.686 5.866l37.059-9.639a56.225 56.225 0 0 1 14.198-1.821c25.631 0 48.035 17.337 54.492 42.164l72.627 279.135c3.789 14.563 1.675 29.729-5.937 42.708-7.62 12.979-19.842 22.208-34.406 25.998l-32.413 8.431h272.229c22.995 0 41.636-18.641 41.636-41.635L612 153.286c0-11.214-5.718-27.563-12.707-36.332zm-509.828-.71l22.156-27.797h151.166l14.917-24.526H131.171l16.357-20.522a16.57 16.57 0 0 1 13.023-6.274h345.792c5.099 0 9.846 2.287 13.023 6.274l16.357 20.522H386.58l8.327 24.526h160.366l22.155 27.797H89.465zm6.758 102.558l-9.345 2.431c-9.953 2.59-15.923 12.758-13.334 22.711l.095.364c2.59 9.954 12.758 15.923 22.712 13.334l79.252-20.618c9.954-2.589 15.923-12.757 13.334-22.712l-.095-.364c-2.59-9.953-12.758-15.923-22.711-13.334l-9.345 2.431c-4.993 1.299-10.095-1.696-11.394-6.689l-.08-.304c-3.017-11.596-14.862-18.551-26.458-15.534l-.485.126c-11.596 3.017-18.55 14.862-15.534 26.458l.08.304c1.297 4.996-1.698 10.097-6.692 11.396zm25.545-26.081c5.027-1.308 10.163 1.708 11.47 6.734a9.404 9.404 0 0 1-6.735 11.47c-5.027 1.307-10.162-1.708-11.47-6.734-1.307-5.027 1.708-10.163 6.735-11.47zm116.798 287.085a6.27 6.27 0 0 1-4.489 7.647l-115.299 29.994a6.271 6.271 0 0 1-7.647-4.49l-1.579-6.067a6.269 6.269 0 0 1 4.49-7.647l115.298-29.994a6.27 6.27 0 0 1 7.647 4.489l1.579 6.068zm14.062-120.28l1.579 6.068a6.268 6.268 0 0 1-4.49 7.646L91.941 414.287a6.27 6.27 0 0 1-7.647-4.489l-1.579-6.069a6.268 6.268 0 0 1 4.49-7.646l157.776-41.045a6.268 6.268 0 0 1 7.647 4.488zm-17.119-40.899L77.733 359.672a6.271 6.271 0 0 1-7.647-4.49l-1.579-6.068a6.269 6.269 0 0 1 4.49-7.646l157.776-41.045a6.27 6.27 0 0 1 7.647 4.489l1.579 6.069a6.27 6.27 0 0 1-4.49 7.646zm-3.504 111.054L104.57 462.833a6.271 6.271 0 0 1-7.647-4.49l-1.579-6.068a6.27 6.27 0 0 1 4.49-7.647l127.434-33.15a6.27 6.27 0 0 1 7.647 4.489l1.579 6.068a6.267 6.267 0 0 1-4.489 7.646zm114.704 67.345l-72.618-279.143c-4.359-16.757-21.478-26.807-38.235-22.448l-37.004 9.627a31.179 31.179 0 0 1 2.126 5.729c4.421 16.996-5.588 34.045-22.22 38.372l-78.087 20.314c-15.94 4.147-33.103-4.061-38.454-19.638a32.305 32.305 0 0 1-1.709-8.788l-37.042 9.637c-16.757 4.359-26.807 21.478-22.448 38.234l72.618 279.143c4.36 16.758 21.478 26.808 38.235 22.448l212.392-55.253c16.756-4.359 26.806-21.477 22.446-38.234zm-242.732 63.146L40.831 317.44l212.391-55.253 63.147 242.732-212.392 55.253z" fill="#0d4b91"/></svg>