<svg xmlns="http://www.w3.org/2000/svg" viewBox="0 0 31.694 31.694" width="512" height="512"><path d="M27.125 3.842C17.859 3.842 16.29.324 16.276.291A.464.464 0 0 0 15.85 0h-.006a.469.469 0 0 0-.426.283c-.013.037-1.616 3.559-10.849 3.559a.462.462 0 0 0-.462.461v15.764c0 6.453 11.085 11.383 11.553 11.59a.457.457 0 0 0 .188.037c.061 0 .126-.01.184-.037.473-.207 11.556-5.137 11.556-11.59V4.303a.463.463 0 0 0-.463-.461zM25.04 19.15c0 5.049-8.678 8.912-9.048 9.072a.32.32 0 0 1-.144.031.34.34 0 0 1-.148-.031c-.365-.16-9.043-4.023-9.043-9.072V6.811c0-.199.161-.363.361-.363 7.23 0 8.481-2.756 8.495-2.783a.366.366 0 0 1 .334-.223h.004a.36.36 0 0 1 .333.229c.011.025 1.239 2.777 8.494 2.777.201 0 .361.164.361.363l.001 12.339zm-1.731-.134c0 4.102-7.045 7.234-7.346 7.363a.234.234 0 0 1-.117.027c-.041 0-.117-20.141 0-20.141h.002a.291.291 0 0 1 .271.186c.008.02 1.006 2.254 6.895 2.254.164 0 .295.133.295.293v10.018z" fill="#0d4b91"/></svg>