<svg xmlns="http://www.w3.org/2000/svg" width="512" height="512" viewBox="0 0 485.213 485.212"><path d="M60.652 75.816V15.163C60.652 6.781 67.433 0 75.817 0c8.38 0 15.161 6.781 15.161 15.163v60.653c0 8.38-6.781 15.161-15.161 15.161-8.384.001-15.165-6.781-15.165-15.161zm257.772 15.162c8.378 0 15.163-6.781 15.163-15.161V15.163C333.587 6.781 326.802 0 318.424 0c-8.382 0-15.168 6.781-15.168 15.163v60.653c0 8.38 6.786 15.162 15.168 15.162zm166.788 272.928c0 66.996-54.312 121.307-121.303 121.307-66.986 0-121.302-54.311-121.302-121.307 0-66.986 54.315-121.3 121.302-121.3 66.991 0 121.303 54.313 121.303 121.3zm-30.322 0c0-50.161-40.81-90.976-90.98-90.976-50.166 0-90.976 40.814-90.976 90.976 0 50.171 40.81 90.98 90.976 90.98 50.17 0 90.98-40.809 90.98-90.98zM121.305 181.955H60.652v60.651h60.653v-60.651zM60.652 333.584h60.653V272.93H60.652v60.654zm90.977-90.978h60.654v-60.651h-60.654v60.651zm0 90.978h60.654V272.93h-60.654v60.654zM30.328 360.891V151.628H363.91v60.653h30.327V94c0-18.421-14.692-33.349-32.843-33.349h-12.647v15.166c0 16.701-13.596 30.325-30.322 30.325-16.731 0-30.326-13.624-30.326-30.325V60.651H106.14v15.166c0 16.701-13.593 30.325-30.322 30.325-16.733 0-30.327-13.624-30.327-30.325V60.651H32.859C14.707 60.651.001 75.579.001 94v266.892c0 18.36 14.706 33.346 32.858 33.346h179.424v-30.331H32.859c-1.374-.001-2.531-1.42-2.531-3.016zm272.928-118.285v-60.651h-60.648v60.651h60.648zm124.975 91.753c-5.923-5.928-15.519-5.928-21.437 0l-53.602 53.602-32.17-32.166c-5.923-5.923-15.518-5.923-21.44 0s-5.923 15.519 0 21.44l42.886 42.886a15.12 15.12 0 0 0 10.725 4.438c3.874 0 7.753-1.479 10.716-4.438l64.322-64.326c5.922-5.923 5.922-15.513 0-21.436z" fill="#0d4b91"/></svg>