<svg xmlns="http://www.w3.org/2000/svg" viewBox="0 0 512 512" width="512" height="512"><path fill="#0d4b91" d="M38.957 244.87h122.435v111.304H38.957zM422.957 0H89.044c-27.62 0-50.087 22.468-50.087 50.087v161.391h434.087V50.087C473.043 22.468 450.576 0 422.957 0zm-16.696 150.261c0 9.223-7.479 16.696-16.696 16.696h-267.13c-9.217 0-16.696-7.473-16.696-16.696V72.348c0-9.223 7.479-16.696 16.696-16.696h267.13c9.217 0 16.696 7.473 16.696 16.696v77.913zM38.957 389.565v72.348c0 27.619 22.468 50.087 50.087 50.087h72.348V389.565H38.957zM350.609 244.87V512h72.348c27.619 0 50.087-22.468 50.087-50.087V244.87H350.609zM194.783 389.565h122.435V512H194.783zm0-144.695h122.435v111.304H194.783z"/></svg>