<svg xmlns="http://www.w3.org/2000/svg" width="512" height="512" viewBox="0 0 512 512"><path d="M400 64H112c-26.51 0-48 21.49-48 48v16h384v-16c0-26.51-21.49-48-48-48zm-83.84-32l7.059 50.5H188.782l7.057-50.5H316.16M320 0H192c-13.2 0-25.495 10.696-27.321 23.769l-9.357 66.962C153.495 103.804 162.8 114.5 176 114.5h160c13.199 0 22.506-10.696 20.68-23.769l-9.357-66.962C345.494 10.696 333.199 0 320 0zm88 160H104c-17.6 0-30.696 14.341-29.103 31.869l26.206 288.263C102.696 497.659 118.4 512 136 512h240c17.6 0 33.305-14.341 34.896-31.868l26.205-288.263C438.695 174.341 425.6 160 408 160zM192 448h-48l-16-224h64v224zm96 0h-64V224h64v224zm80 0h-48V224h64l-16 224z" fill="#0d4b91"/></svg>