<svg xmlns="http://www.w3.org/2000/svg" width="512" height="512" viewBox="0 0 74.86 74.86"><path d="M54.804 59.891l2.724-2.724v14.517a3.181 3.181 0 0 1-3.178 3.177H6.241a3.181 3.181 0 0 1-3.178-3.177V8.143a3.181 3.181 0 0 1 3.178-3.177h10.171l-.367 1.656a1.767 1.767 0 0 0-.046.386v7.262c0 1.001.814 1.815 1.815 1.815h24.962a1.817 1.817 0 0 0 1.816-1.815V7.008c0-.121-.016-.247-.047-.386l-.367-1.656H54.35a3.181 3.181 0 0 1 3.178 3.177v21.581l-2.725 2.724V8.143a.455.455 0 0 0-.454-.454h-7.034v6.581a4.544 4.544 0 0 1-4.539 4.539H17.813a4.544 4.544 0 0 1-4.539-4.539V7.689H6.241a.455.455 0 0 0-.454.454v63.541c0 .25.204.455.454.455H54.35c.25 0 .454-.205.454-.455V59.891zM19.31 14.38h21.97c.883 0 1.598-.715 1.598-1.598V6.391c0-.883-.715-1.598-1.598-1.598h-5.991C35.289 2.146 33.04 0 30.268 0c-2.774 0-5.022 2.146-5.022 4.793h-5.935c-.883 0-1.597.715-1.597 1.598v6.391c0 .882.714 1.598 1.596 1.598zm7.215 28.472l-8.604-8.604-3.535 3.535 12.139 12.139 19.68-19.681-3.534-3.535-16.146 16.146zm44.668-7.306l-6.181-6.182c-.91-.909-2.521-.777-3.595.296l-3.402 3.403 9.48 9.479 3.401-3.403c1.076-1.072 1.207-2.684.297-3.593zm-14.756-.904l9.479 9.479-22.604 22.606c-.104.104-.391.392-.795.494a1.558 1.558 0 0 1-.142.057l-11.797 3.759c-.33.104-.662.038-.877-.179-.215-.215-.283-.547-.179-.877l3.76-11.795c.016-.049.035-.096.057-.143.103-.404.39-.691.495-.796l22.603-22.605zM40.396 65.998l-5.836-5.836-1.565 4.915 2.487 2.487 4.914-1.566zM56.072 38.41a.858.858 0 0 0-1.215 0L37.236 56.032a.858.858 0 1 0 1.215 1.215l17.621-17.622a.858.858 0 0 0 0-1.215z" fill="#0d4b91"/></svg>