<svg xmlns="http://www.w3.org/2000/svg" viewBox="0 0 512 512" width="512" height="512"><path d="M335.367 257.951c-7.187 0-13.033 5.847-13.033 13.034v43.562c0 7.187 5.847 13.033 13.033 13.033H512v-69.628H335.367zm21.98 54.907c-11.097 0-20.094-8.996-20.094-20.094 0-11.097 8.996-20.094 20.094-20.094s20.094 8.996 20.094 20.094c-.001 11.098-8.997 20.094-20.094 20.094z" fill="#0d4b91"/><path d="M335.367 227.534H512V152.95c0-23.959-19.492-43.45-43.45-43.45H43.45C19.492 109.5 0 128.991 0 152.95v310.047c0 23.959 19.492 43.451 43.45 43.451h425.099c23.959 0 43.45-19.492 43.45-43.451v-105H335.367c-23.959 0-43.45-19.491-43.45-43.45v-43.562c0-23.959 19.493-43.451 43.45-43.451zM425.425 5.552l-206.358 73.53h232.559z" fill="#0d4b91"/></svg>