<svg xmlns="http://www.w3.org/2000/svg" viewBox="0 0 490.488 490.488" width="512" height="512"><g fill="#0d4b91"><path d="M36.569 203.038c0-86.7 70.5-157.3 157.2-157.3v16.1c0 1.8 2 2.8 3.4 1.8l43.3-29.9c1.2-.8 1.2-2.6 0-3.5l-43.3-29.9c-1.5-.9-3.4.1-3.4 1.8v16.1c-101.9 0-184.8 82.9-184.7 184.8 0 59 28.5 114.9 76.3 149.6l16.2-22.3c-40.7-29.5-65-77.1-65-127.3z"/><path d="M176.369 258.338l26-25.8 59.5-59.2-25.8-26-59.5 59.2-24.9-25-26 25.8 24.9 25z"/><path d="M470.469 426.738l-74.4-74.4c-10.7-10.7-26.1-13.4-39.4-8.5l-21.8-21.8c27.2-32.2 43.7-73.7 43.7-119 0-59-28.5-114.9-76.3-149.6l-16.2 22.3c40.7 29.5 65 77.1 65 127.3 0 86.7-70.5 157.2-157.2 157.2v-16.1c0-1.7-1.9-2.7-3.4-1.8l-43.5 29.9c-1.2.9-1.2 2.7 0 3.5l43.4 29.8c1.4 1 3.4 0 3.4-1.8v-16.1c45.4 0 86.9-16.5 119.1-43.8l21.9 21.9c-4.9 13.3-2.1 28.7 8.5 39.4l74.4 74.4c14.6 14.6 38.2 14.6 52.8 0 14.6-14.6 14.6-38.2 0-52.8z"/></g></svg>