<svg xmlns="http://www.w3.org/2000/svg" viewBox="0 0 494.891 494.891" width="512" height="512"><g fill="#747373"><path d="M281.299 398.402c-2.769 0-4.248-.812-4.335-2.182-1.516-17.476-9.565-34.229-22.859-47.808 4.595-9.42 4.109-22.517 3.935-25.514a6.474 6.474 0 0 0-2.644-4.824c-1.554-1.139-3.521-1.498-5.402-1.029l-39.638 10.19c-3.857-1.222-20.256-4.626-36.378-5.154-28.044-.905-53.864 14.894-55.098 15.623-18.131 11.317-30.492 27.771-35.702 46.797-1.787 1.047-3.635 1.783-5.475 2.129.634-4.24.131-8.729-1.456-12.231-5.091-11.204-17.69-1.152-17.087 7.932.277 4.148 3.573 7.809 7.4 9.912-1.637.31-3.55.229-5.675-.291-12.307-3.043-12.718-16.959-11.481-27.174.592-4.9-6.286-1.768-6.72 1.807-1.952 16.19 3.666 36.012 23.96 32.896 3.685-.566 6.321-2.599 8.168-5.312 2.367-.106 4.588-.592 6.674-1.461-.661 4.099-1.118 8.271-1.118 12.559 0 24.721 2.109 46.49 27.999 63.213 1.164 2.354 2.209 10.353 2.209 17.476a6.446 6.446 0 0 0 5.948 6.424l22.727 1.752c8.194 0 7.235-8.352 6.051-14.187 9.102 1.97 18.2 2.16 27.468 2.16 1.802 0 2.993-.031 4.062-.123.553 2.273 1.164 5.18 1.637 7.653a6.43 6.43 0 0 0 6.336 5.256h.038l15.619-.106a6.448 6.448 0 0 0 6.397-6.302c.112-4.642.165-12.634.165-12.634s5.43-.31 6.36-.385l2.102 7.191c.841 3.013 3.708 5.071 6.832 4.702l24.125-2.306a6.341 6.341 0 0 0 4.649-2.705 6.471 6.471 0 0 0 .98-5.316c-1.064-4.148-1.959-8.791-2.192-11.297 3.898-3.458 5.398-7.25 7.149-10.45 7.457-13.629 22.446-13.814 25.429-13.814h.063c1.783.138 3.458-.569 4.731-1.791a6.367 6.367 0 0 0 1.998-4.656v-30.3c.002-1.892-1.721-6.32-7.951-6.32zM66.313 380.635c-1.36-2.535.285-5.104 2.644-2.967 1.629 1.459 2.086 4.242 2.401 6.285.111.736.119 1.354.111 1.998-1.938-.951-3.715-2.625-5.156-5.316zm126.496-18.903c-1.222 3.357-4.918 5.102-8.265 3.873-33.739-12.217-51.337 7.032-52.059 7.854a6.528 6.528 0 0 1-4.856 2.167 6.523 6.523 0 0 1-4.242-1.582 6.446 6.446 0 0 1-.634-9.054c.942-1.089 23.795-26.81 66.16-11.525 3.354 1.214 5.083 4.918 3.896 8.267zm48.469 26.239c-3.562 0-6.451-4.287-6.451-9.591-.003-5.295 2.889-9.592 6.451-9.592 3.565 0 6.455 4.297 6.455 9.592 0 5.304-2.89 9.591-6.455 9.591z"/><circle cx="184.683" cy="243.557" r="30.083"/><path d="M355.267 102.419c28.286 0 51.209-22.928 51.209-51.209 0-28.283-22.923-51.21-51.209-51.21-28.287 0-51.218 22.924-51.218 51.21.001 28.281 22.931 51.209 51.218 51.209zm34.05 12.448c-.846-.521-14.754-7.885-21.294-9.485l-12.756 12.84-12.372-12.976c-.046.009-.085.017-.131.022-8.762 1.511-20.778 9.087-21.624 9.604-13.341 8.19-24.49 21.104-35.279 33.568-24.675 28.532-35.575 36.771-51.569 29.307-9.948-4.66-21.782-.354-26.423 9.59-4.653 9.947-.365 21.781 9.583 26.429 9.767 4.562 18.854 6.506 27.368 6.506 23.938 0 43.008-15.425 58.033-31.199v73.862c0 5.418 1.69 13.843 4.33 17.496-.123.983-.274 190.977-.274 190.977 0 12.971 10.513 23.482 23.491 23.482 12.964 0 23.489-10.514 23.489-23.482l-.016-163.388c.922.03 1.859.123 2.797.123.178 0 .369-.031.546-.031l-.016 163.296c0 12.971 10.525 23.482 23.491 23.482 12.985 0 23.499-10.514 23.499-23.482l.016-190.838c3.074-5.702 3.571-11.292 3.461-17.627v-55.244s2.465 4.246 3.55 9.313c.497 2.316 2.189 31.203.548 52.265-.854 10.949 7.321 20.52 18.279 21.37.521.047 1.038.077 1.555.077 10.279 0 18.996-7.933 19.811-18.354 7.836-100.149-25.207-134.888-62.093-157.503zM355.39 219.579h-.226l-12.354-16.9 12.354-82.543h.226l12.349 82.543-12.349 16.9z"/></g></svg>